<svg xmlns="http://www.w3.org/2000/svg" xmlns:xlink="http://www.w3.org/1999/xlink" viewBox="0 0 50 50"><defs><style>.a{fill:url(#a);}.b{fill:url(#b);}.c{fill:url(#c);}</style><linearGradient id="a" x1="34.49" y1="26.5" x2="62.49" y2="26.5" gradientUnits="userSpaceOnUse"><stop offset="0" stop-color="#c8511b"/><stop offset="1" stop-color="#f90"/></linearGradient><linearGradient id="b" x1="12.49" y1="48.5" x2="40.49" y2="48.5" xlink:href="#a"/><linearGradient id="c" x1="21.5" y1="37.5" x2="53.5" y2="37.5" xlink:href="#a"/></defs><title>icon-aws-amazon-ec2</title><path class="a" d="M60.49,40.5h-5v-2h5v-24h-24v5h-2v-5a2,2,0,0,1,2-2h24a2,2,0,0,1,2,2v24A2,2,0,0,1,60.49,40.5Z" transform="translate(-12.49 -12.5)"/><path class="b" d="M38.49,62.5h-24a2,2,0,0,1-2-2v-24a2,2,0,0,1,2-2h5v2h-5v24h24v-5h2v5A2,2,0,0,1,38.49,62.5Z" transform="translate(-12.49 -12.5)"/><path class="c" d="M53.5,28.5v-2h-3a2.181,2.181,0,0,0-2-2v-3h-2v3h-3v-3h-2v3h-3v-3h-2v3h-3v-3h-2v3h-3v-3h-2v3a2.181,2.181,0,0,0-2,2h-3v2h3v3h-3v2h3v3h-3v2h3v3h-3v2h3v3h-3v2h3a2.181,2.181,0,0,0,2,2v3h2v-3h3v3h2v-3h3v3h2v-3h3v3h2v-3h3v3h2v-3a2.181,2.181,0,0,0,2-2h3v-2h-3v-3h3v-2h-3v-3h3v-2h-3v-3h3v-2h-3v-3Zm-5,19.82a.181.181,0,0,1-.18.18H26.68a.181.181,0,0,1-.18-.18h0V26.68a.181.181,0,0,1,.18-.18H48.32a.181.181,0,0,1,.18.18h0Z" transform="translate(-12.49 -12.5)"/></svg>