<svg xmlns="http://www.w3.org/2000/svg" xmlns:xlink="http://www.w3.org/1999/xlink" width="100" height="100" viewBox="0 0 100 100">
  <defs>
    <style>
      .cls-1 {
        fill: url(#linear-gradient);
      }

      .cls-2 {
        fill: url(#linear-gradient-2);
      }

      .cls-3 {
        fill: url(#radial-gradient);
      }

      .cls-4 {
        fill: #1a4870;
      }

      .cls-5 {
        fill: #205c99;
      }

      .cls-6 {
        fill: #2f73b8;
      }

      .cls-7 {
        fill: #5295d0;
      }

      .cls-8 {
        fill: #252f3e;
      }

      .cls-9 {
        fill: #f90;
        fill-rule: evenodd;
      }

      .cls-10 {
        isolation: isolate;
      }

      .cls-11 {
        fill: gray;
      }
    </style>
    <linearGradient id="linear-gradient" x1="-24437.21" y1="25797.29" x2="-24407.17" y2="25815.05" gradientTransform="matrix(0.12, 0, 0, -0.12, 2965.03, 3156.3)" gradientUnits="userSpaceOnUse">
      <stop offset="0" stop-color="#909ca9"/>
      <stop offset="1" stop-color="#ededee"/>
    </linearGradient>
    <linearGradient id="linear-gradient-2" x1="-24461.17" y1="26125.78" x2="-24437" y2="26125.78" gradientTransform="matrix(0.12, 0, 0, -0.12, 2965.03, 3156.3)" gradientUnits="userSpaceOnUse">
      <stop offset="0" stop-color="#939fab"/>
      <stop offset="1" stop-color="#dcdee1"/>
    </linearGradient>
    <radialGradient id="radial-gradient" cx="16385.05" cy="-6911.92" r="40.12" gradientTransform="matrix(-0.09, -0.02, -0.02, 0.18, 1319.05, 1562.56)" gradientUnits="userSpaceOnUse">
      <stop offset="0" stop-color="#ee352c"/>
      <stop offset="1" stop-color="#a91d22"/>
    </radialGradient>
  </defs>
  <title>connectors</title>
  <g id="graphics">
    <g>
      <path class="cls-1" d="M53,39.53l-9.86,3.23-8.59,3.78-2.4.63c-.61.58-1.25,1.17-1.94,1.77s-1.47,1.26-2,1.69a14.89,14.89,0,0,0-2,1.93A8.38,8.38,0,0,0,24.84,55a4.12,4.12,0,0,0,.58,3.7,13,13,0,0,0,5.39,4,33.4,33.4,0,0,0,4.74,1.59,63.58,63.58,0,0,0,10.12,1.44,9.4,9.4,0,0,0,1.3,0,18.11,18.11,0,0,0,1-1.82,46.8,46.8,0,0,0,3.5-9.25,46.19,46.19,0,0,0,.9-6.42c.05-.72.07-3.15,0-4a27.32,27.32,0,0,0-.37-3.5,1.08,1.08,0,0,1,0-.31s.12-.05,1.33-.41L53,39.55h0Zm-2.25,1.32a23.21,23.21,0,0,1,.38,3.73,2.18,2.18,0,0,1,0,.51c-.06,0-1.26-.72-2.12-1.25s-2.17-1.4-2.39-1.59-.06-.06.54-.27c1.06-.33,3.53-1.12,3.6-1.12Zm-5,1.65a2.69,2.69,0,0,1,.66.35,44.74,44.74,0,0,0,4.52,2.51c.27.12.31.07-.33.5a31.85,31.85,0,0,1-5.13,2.75l-.68.3a2.71,2.71,0,0,1,.09-.41,21.23,21.23,0,0,0,.8-5.25c0-.75,0-.75.07-.76s0,0,0,0Zm-1,.4a15.19,15.19,0,0,1,0,2.16A18,18,0,0,1,44,48.3a4.51,4.51,0,0,1-.17.52,12.38,12.38,0,0,1-1.39-1.36,9.39,9.39,0,0,1-1.37-2,7.11,7.11,0,0,1-.42-1s4-1.6,4.08-1.58Zm-4.88,1.92h0a1.69,1.69,0,0,1,.11.27,10.19,10.19,0,0,0,1.24,2.21,13.26,13.26,0,0,0,1.71,1.88l.37.3c0,.05.07,0-1.15.51-1.41.54-2.95,1.07-4.71,1.64L36.2,52c-.07,0-.05,0,.14-.32a40.44,40.44,0,0,0,2.95-5.93c.12-.34.26-.66.27-.73a.25.25,0,0,1,.16-.2l.12,0Zm-1.49.61A13.63,13.63,0,0,1,37.64,47c-.73,1.41-1.52,2.8-2.58,4.49l-.37.59c0,.05,0,0-.17-.2a7,7,0,0,1-.58-1.73,7.12,7.12,0,0,1,0-2.21c.1-.47.08-.46.31-.57,1-.48,4-1.93,4.07-1.9ZM51.22,46v.31a42,42,0,0,1-.44,5.6l-.09.54-.47-.13a19.26,19.26,0,0,1-3.43-1.47A14.25,14.25,0,0,1,45,49.73l.69-.37A42.48,42.48,0,0,0,49.8,47c.46-.31,1.15-.8,1.3-.93l.12-.09ZM32.73,48.17s0,.06,0,.33-.06.55-.09.8a5.55,5.55,0,0,0,.66,3c.09.19.18.38.25.57s-5,1.49-6.54,1.92L26.1,55c-.05,0-.07,0,0-.13a7.87,7.87,0,0,1,2.17-3.73,9.54,9.54,0,0,1,2.45-1.88c.76-.43,1.93-1.09,2-1.11h0Zm11.64,2.08.41.22a22.37,22.37,0,0,0,5.71,2.22l.18,0-.24.14A81.94,81.94,0,0,1,42.85,56l-1.05.4-.17.05.3-.6a36,36,0,0,0,2.36-5.34c.06-.15.1-.27.1-.27Zm-1.18.38a2,2,0,0,1-.12.34,47.65,47.65,0,0,1-2.59,5.21,8.14,8.14,0,0,1-.52.89l-.5-.29a16,16,0,0,1-3.91-3.32l-.13-.16.68-.18a49.2,49.2,0,0,0,6.55-2.26Zm7.37,2.57h0A25.86,25.86,0,0,1,49.87,56c-.32,1.11-.48,1.67-.9,3-.19.57-.34,1-.35,1l-.1,0a31.19,31.19,0,0,1-6.06-1.7c-.51-.21-1.26-.54-1.31-.58a4.52,4.52,0,0,1,1-.47c3.39-1.47,6.91-3.16,8.12-3.89a.84.84,0,0,1,.27-.13Zm-17,.6S32.6,55.17,31.28,57l-1.19,1.69c-.2.29-.51.73-.68,1l-.31.48-.33-.28a12.42,12.42,0,0,1-1.39-1.42,6.27,6.27,0,0,1-1.25-2.41c-.08-.36-.08-.55,0-.56l4-.93L32.75,54Zm.95.36.24.28a14.06,14.06,0,0,0,3.5,2.87,1.91,1.91,0,0,1,.41.24c-.05,0-4.6,1.65-6.72,2.39l-2.17.75-.15-.1-.13-.09.22-.31c.7-1,1.58-2.13,3.5-4.44l1.32-1.59Zm6,4.25.74.26a22.73,22.73,0,0,0,2.77.86,29.86,29.86,0,0,0,4.19.73c.16,0,.26,0,.22.05s-1.14.39-2,.65c-1.29.41-5.2,1.57-8.39,2.48l-1.12.32a.57.57,0,0,1-.32-.09,6.12,6.12,0,0,1,.39-.5,46.06,46.06,0,0,0,3-4.07Zm-1.31,0s-.52.86-1.44,2.32l-1,1.56-.51.83-.22.38-.11,0c-.27-.07-2.16-.74-2.66-.93s-1.17-.51-1.74-.8A6.92,6.92,0,0,1,30.17,61l2.27-.61c3.26-.89,5.07-1.41,6.27-1.78l.4-.11Zm9.28,2.18h0c0,.07-1.19,3.44-1.62,4.48-.1.24-.13.3-.18.3l-3-.41c-1.86-.28-5-.82-5.75-1l-.18,0,1.11-.26c2.38-.54,3.53-.83,4.69-1.18a34.29,34.29,0,0,0,4.39-1.69,3,3,0,0,1,.49-.2Z"/>
      <path class="cls-2" d="M42.87,16.54a46.16,46.16,0,0,0-4.52,1.62,28.25,28.25,0,0,0-5.2,2.62,4.13,4.13,0,0,0-1,1,.74.74,0,0,0,0,.25l1,.95,2.38.77,5.66,1,6.48,1.1.06-.55h-.05l-.85-.14-.17-.3c-.87-1.56-1.85-3.48-2.41-4.78a24.56,24.56,0,0,1-1.09-3c-.12-.5-.14-.54-.22-.54h0Zm-.12.38h0a3.14,3.14,0,0,1,.06.47,15.4,15.4,0,0,0,.73,3.14c.27.82.27.77,0,.68-.76-.21-4.16-.8-6.64-1.15L36.13,20s1.79-1,2.58-1.35C39.73,18.13,42.54,17,42.75,16.92Zm-7.18,3.34.29.1a44.35,44.35,0,0,0,7.75,1.47l.47.05a3,3,0,0,1-.47.25c-1.06.53-2.22,1.18-3,1.68a3.72,3.72,0,0,1-.48.27l-.35,0L39.46,24l-.75-.73C37.39,22,36.37,21,36,20.62Zm-.3.23,1,1.32c.58.73,1.16,1.43,1.28,1.59a3.15,3.15,0,0,1,.22.29s-1.53-.27-2.31-.44a15,15,0,0,1-1.65-.43l-.41-.14v-.09c0-.51.64-1.25,1.71-2l.1-.06Zm8.93,1.79s.06.06.16.27c.26.55,1,2.07,1.24,2.35.07.1.16.1-.88-.06-2.53-.41-3.34-.54-3.34-.55l.17-.12a14.88,14.88,0,0,0,2.28-1.57l.36-.3h0Z"/>
      <path class="cls-3" d="M32.2,21.67a.76.76,0,0,0,0,.66,3,3,0,0,0,.7.82s3.32,3.24,3.72,3.7a10.31,10.31,0,0,1,2.71,7.08,11.32,11.32,0,0,1-1.18,5.36c-1.55,3.38-4.83,7.12-9.88,11.27l.74-.25a23.35,23.35,0,0,1,2.65-1.58A93,93,0,0,1,44,43.23a153.23,153.23,0,0,1,25-6.7l.67-.1-.09-.16c-.47-.73-1-1.43-1.51-2.11a18,18,0,0,0-5.29-4.41A39.38,39.38,0,0,0,51.25,25.9c-.9-.19-2.89-.52-4.5-.76-3.41-.53-5.63-.9-8-1.32-.88-.15-2.18-.37-3.05-.56a19.78,19.78,0,0,1-2-.53c-.54-.21-1.32-.42-1.48-1Zm1.93,1.88.28.08,1.08.34,1,.25.82.23c.05,0,.8,2.46,1.06,3.38a3.76,3.76,0,0,1,.16.66,1.83,1.83,0,0,1-.18-.3,15.81,15.81,0,0,0-3.84-4.36,2.69,2.69,0,0,1-.37-.3Zm3.67,1,.4.06c1.27.28,3.55.71,5,1a1.82,1.82,0,0,1,.45.1.82.82,0,0,1-.2.12c-.25.12-1.24.71-1.56.94a14.28,14.28,0,0,0-2.11,1.68l-.41.4a1.85,1.85,0,0,1-.08-.29A24.88,24.88,0,0,0,38,24.88a2.63,2.63,0,0,1-.15-.35h0Zm6.45,1.23s.12.27.27.82A12.29,12.29,0,0,1,44.88,30a4.18,4.18,0,0,1-.05.65l0,.07-.38-.12c-.8-.26-2.09-.63-3.2-.95a10.11,10.11,0,0,1-1.15-.35s.93-1,1.32-1.32a33.7,33.7,0,0,1,2.86-2.21Zm.52.07s3.09.51,4.48.78c1,.19,2.54.52,2.64.55s-.11.1-.62.33a33.5,33.5,0,0,0-4.89,2.66l-.71.47a3.85,3.85,0,0,1,0-.48,10.23,10.23,0,0,0-.8-4.05A1.12,1.12,0,0,1,44.77,25.86Zm7.93,1.57a5.69,5.69,0,0,1-.16,1,18.75,18.75,0,0,1-1.89,4.31,4.27,4.27,0,0,1-.3.51A3.21,3.21,0,0,1,49.9,33,23.91,23.91,0,0,0,47,31.56l-.56-.24A41,41,0,0,1,50,28.93a30.4,30.4,0,0,1,2.67-1.49Zm.57.08c.06,0,1.42.37,2.13.58A45.92,45.92,0,0,1,60.47,30l.54.25-.38.08A57.41,57.41,0,0,0,52,32.94l-.43.16a2.54,2.54,0,0,1,.16-.38,14.89,14.89,0,0,0,1.44-5c0-.15,0-.26,0-.26ZM39.75,30.62a13.53,13.53,0,0,1,1.62.38c.85.23,2.66.84,2.66.88l-.45.39c-1,.81-1.92,1.67-3,2.76a7,7,0,0,1-.63.57s0-.05,0-.09a16.82,16.82,0,0,0-.1-4.5A3.08,3.08,0,0,1,39.75,30.62Zm21.79,0a12.23,12.23,0,0,1-.79,1.23c-.44.64-1.1,1.49-2.58,3.35l-2,2.47-.56.69c-.07-.1-.14-.2-.2-.3a15.73,15.73,0,0,0-3-3.34l-.56-.44-.14-.12s1.26-.57,2.23-1c1.68-.68,4-1.5,5.7-2C60.56,30.9,61.52,30.63,61.54,30.64Zm.58.15a1.72,1.72,0,0,1,.43.21,25.32,25.32,0,0,1,5,3.74c.39.38,1.37,1.41,1.35,1.41l-.75.06a72.73,72.73,0,0,0-11,1.83l-.5.11a7.85,7.85,0,0,1,.64-.64,19.24,19.24,0,0,0,4.53-6l.33-.7Zm-16.63,1.7c.1,0,1.08.48,1.81.84s1.68.87,1.73.91l-.79.4c-1.4.71-2.6,1.37-3.85,2.13l-.67.4s0,0,.19-.4a15.66,15.66,0,0,0,1.51-4.1c0-.11.06-.18.09-.18Zm-1,.18a12.81,12.81,0,0,1-.38,1.44,18.05,18.05,0,0,1-1.32,3l-.39.69-.19.3-.42-.41a5.2,5.2,0,0,0-1.39-1,3.35,3.35,0,0,1-.36-.21c0-.06,1.29-1.22,2.26-2.06.7-.6,2.18-1.78,2.2-1.76Zm5.94,2.44.37.24a27.82,27.82,0,0,1,2.57,1.89c.43.35,1.24,1.09,1.41,1.27l.08.1-.6.17c-3.41.95-6.06,1.79-9.14,2.92l-.65.23s-.09,0,.69-.66a32.49,32.49,0,0,0,5-5.75l.26-.41Zm-1.57.38s-1,1.46-1.61,2.27-2,2.6-2.92,3.66l-.71.81s0-.1,0-.27A6.14,6.14,0,0,0,43,39.27c-.17-.34-.19-.43-.16-.46s2.32-1.37,3.69-2.11c.92-.49,2.37-1.22,2.39-1.21Zm-9.42,2.32.38.2a7,7,0,0,1,1.28.86,2.43,2.43,0,0,1-.43.36c-.71.5-1.78,1.31-2.41,1.82s-.68.54-.6.43a13.53,13.53,0,0,0,1.62-3.29,1.37,1.37,0,0,1,.15-.38Zm2.51,2s.09.06.29.36a5.29,5.29,0,0,1,.83,2.16v.15l-1,.4c-1.82.71-3.51,1.4-4.65,1.93l-1.25.59-.66.32.52-.38a29.67,29.67,0,0,0,5.6-5.17l.31-.37h0Zm-1.15.28a16.86,16.86,0,0,1-1.41,1.58,24.83,24.83,0,0,1-4.63,3.73l-.44.28c-.05,0,0,0,.79-.88.49-.53.86-1,1.29-1.53a2.42,2.42,0,0,1,.75-.71c1.1-.78,3.62-2.5,3.65-2.47Z"/>
    </g>
    <polygon class="cls-4" points="53.31 48.62 53.31 61.19 55.65 63.94 55.65 45.87 53.31 48.62"/>
    <polygon class="cls-5" points="55.65 45.87 55.65 63.94 60.13 66.17 60.13 43.63 55.65 45.87"/>
    <polygon class="cls-6" points="70.96 63.94 73.31 61.19 73.31 48.62 70.96 45.87 70.96 63.94"/>
    <polygon class="cls-7" points="66.48 43.63 66.48 66.17 70.96 63.94 70.96 45.87 66.48 43.63"/>
    <rect class="cls-6" x="60.13" y="43.63" width="6.36" height="22.54"/>
    <g>
      <path class="cls-8" d="M47.58,80.15a2.54,2.54,0,0,1-.61-.07,1.7,1.7,0,0,1-.45-.15.28.28,0,0,1-.13-.11.36.36,0,0,1,0-.11V79.5c0-.08,0-.12.08-.12h.07l.1,0a2.19,2.19,0,0,0,.43.15,2.49,2.49,0,0,0,.47,0,1.08,1.08,0,0,0,.58-.13.43.43,0,0,0,.2-.37.38.38,0,0,0-.1-.27,1,1,0,0,0-.4-.21l-.57-.17a1.19,1.19,0,0,1-.64-.41,1,1,0,0,1-.19-.57.85.85,0,0,1,.11-.44,1,1,0,0,1,.28-.33,1.2,1.2,0,0,1,.41-.2,1.68,1.68,0,0,1,.5-.07l.27,0,.25,0,.23.07.17.07a.31.31,0,0,1,.11.09.22.22,0,0,1,0,.13V77c0,.08,0,.12-.09.12a.42.42,0,0,1-.15,0,1.67,1.67,0,0,0-.76-.15,1,1,0,0,0-.52.1.38.38,0,0,0-.19.36.39.39,0,0,0,.12.28,1.25,1.25,0,0,0,.43.22l.56.17a1.29,1.29,0,0,1,.62.38A.91.91,0,0,1,49,79a1,1,0,0,1-.11.46,1.05,1.05,0,0,1-.29.34,1.4,1.4,0,0,1-.44.22A1.68,1.68,0,0,1,47.58,80.15Zm-5.08-.1a.28.28,0,0,1-.15,0,.36.36,0,0,1-.08-.15l-.94-3a.45.45,0,0,1,0-.16.09.09,0,0,1,.08-.1h.4a.23.23,0,0,1,.16,0,.28.28,0,0,1,.08.15l.66,2.59.61-2.59a.2.2,0,0,1,.19-.2h.37a.23.23,0,0,1,.16,0,.28.28,0,0,1,.08.15l.62,2.63.69-2.63a.27.27,0,0,1,.07-.14.29.29,0,0,1,.16,0H46a.09.09,0,0,1,.09.08v0a.13.13,0,0,1,0,.06.3.3,0,0,1,0,.1l-1,3A.28.28,0,0,1,45,80a.28.28,0,0,1-.15,0h-.34a.23.23,0,0,1-.16,0,.28.28,0,0,1-.08-.15l-.62-2.54-.6,2.53A.35.35,0,0,1,43,80a.3.3,0,0,1-.16,0Zm-3.17-.42a1.87,1.87,0,0,0,.4-.07.84.84,0,0,0,.38-.26.6.6,0,0,0,.13-.25,1.39,1.39,0,0,0,0-.35v-.16l-.36-.07-.37,0a.89.89,0,0,0-.59.16.55.55,0,0,0-.11.78.56.56,0,0,0,.48.23Zm1.6-.6a1,1,0,0,0,0,.35,2.39,2.39,0,0,0,.13.28.29.29,0,0,1,0,.09.15.15,0,0,1-.08.11L40.8,80l-.1,0a.34.34,0,0,1-.12-.06,1.24,1.24,0,0,1-.14-.18l-.12-.24a1.48,1.48,0,0,1-1.16.55,1.07,1.07,0,0,1-.79-.29,1,1,0,0,1-.29-.75,1,1,0,0,1,.36-.81,1.46,1.46,0,0,1,1-.31,2,2,0,0,1,.42,0l.46.08v-.29a.83.83,0,0,0-.19-.62.9.9,0,0,0-.64-.19,1.54,1.54,0,0,0-.43.06,2.13,2.13,0,0,0-.43.13l-.14,0h-.07s-.08,0-.08-.12v-.18a.32.32,0,0,1,0-.14.36.36,0,0,1,.12-.08,2.68,2.68,0,0,1,1.11-.24,1.47,1.47,0,0,1,1,.31,1.29,1.29,0,0,1,.33,1V79Z"/>
      <path class="cls-9" d="M48.33,82.11a8.63,8.63,0,0,1-4.82,1.46,8.76,8.76,0,0,1-5.87-2.22c-.13-.1,0-.25.13-.18a11.89,11.89,0,0,0,5.89,1.55,11.67,11.67,0,0,0,4.48-.9C48.35,81.71,48.54,82,48.33,82.11Z"/>
      <path class="cls-9" d="M48.86,81.49c-.16-.21-1.1-.1-1.52,0-.12,0-.15-.1,0-.18a2.31,2.31,0,0,1,2.1-.19,2.24,2.24,0,0,1-.74,2c-.1.09-.21,0-.16-.07C48.68,82.57,49,81.7,48.86,81.49Z"/>
    </g>
  </g>
  <g id="type">
    <g class="cls-10">
      <path class="cls-11" d="M53.72,76.88l-.12.51a1.22,1.22,0,0,0-.57-.13.92.92,0,0,0-.89,1v1.85h-.52V76.83h.52v.47a1.14,1.14,0,0,1,1-.53A1.4,1.4,0,0,1,53.72,76.88Z"/>
      <path class="cls-11" d="M56.78,77.32V75.11h.52v5h-.52v-.49a1.45,1.45,0,0,1-1.21.56,1.72,1.72,0,0,1,0-3.44A1.47,1.47,0,0,1,56.78,77.32Zm-2.33,1.16a1.18,1.18,0,1,0,2.36,0,1.18,1.18,0,1,0-2.36,0Z"/>
      <path class="cls-11" d="M60.55,77.53a2.17,2.17,0,0,0-1.09-.31c-.47,0-.78.2-.78.52s.24.42.67.47l.4.05c.7.09,1.11.38,1.11.92s-.57,1-1.46,1A2.3,2.3,0,0,1,58,79.78l.24-.39a1.78,1.78,0,0,0,1.15.36c.56,0,.91-.19.91-.54s-.22-.42-.69-.48l-.4,0c-.74-.09-1.09-.43-1.09-.92s.53-1,1.32-1a2.33,2.33,0,0,1,1.31.36Z"/>
    </g>
  </g>
</svg>
